<svg id="Capa_1" enable-background="new 0 0 512 512" height="512" viewBox="0 0 512 512" width="512" xmlns="http://www.w3.org/2000/svg"><g><path d="m508.485 246.352-47.772-56.871 5.228-74.101c.513-7.272-4.276-13.859-11.352-15.614l-72.105-17.885-39.262-63.07c-3.858-6.197-11.616-8.718-18.379-5.97l-68.843 27.961-68.843-27.962c-6.763-2.747-14.521-.227-18.379 5.97l-39.262 63.07-72.105 17.886c-7.076 1.755-11.865 8.342-11.352 15.614l5.228 74.101-47.772 56.871c-4.686 5.579-4.686 13.717 0 19.296l47.772 56.871-5.228 74.101c-.513 7.272 4.276 13.859 11.352 15.614l72.105 17.885 39.262 63.07c3.857 6.196 11.616 8.717 18.379 5.97l68.843-27.961 68.843 27.962c1.839.747 3.751 1.104 5.639 1.104 5.054 0 9.931-2.563 12.74-7.075l39.262-63.07 72.104-17.885c7.076-1.755 11.865-8.342 11.352-15.614l-5.228-74.101 47.772-56.871c4.687-5.579 4.687-13.717.001-19.296z" fill="#fdbf00"/><path d="m324.843 499.16c1.839.747 3.751 1.104 5.639 1.104 5.054 0 9.931-2.563 12.74-7.075l39.262-63.07 72.104-17.885c7.076-1.755 11.865-8.342 11.352-15.614l-5.228-74.101 47.772-56.871c4.686-5.579 4.686-13.717 0-19.296l-47.772-56.871 5.228-74.101c.513-7.272-4.276-13.859-11.352-15.614l-72.105-17.885-39.262-63.07c-3.858-6.197-11.616-8.718-18.379-5.97l-68.842 27.961v430.396z" fill="#ff9100"/><path d="m406 256c0-82.71-67.29-150-150-150v300c82.71 0 150-67.289 150-150z" fill="#ffb454"/><circle cx="256" cy="256" fill="#ffda44" r="150"/><path d="m406 256c0-82.71-67.29-150-150-150v300c82.71 0 150-67.289 150-150z" fill="#fdbf00"/></g></svg>